# xmcd
#
# Track frame offsets: 
#        150
#        8907
#        18155
#        27487
#        36437
#        45315
#        54277
#        64617
#        75937
#        84395
#        93017
#        102435
#        110850
#        119930
#        128282
#        136885
#        146802
#        155675
#        166280
#        176017
#
# Disc length: 2452 seconds
#
# Revision: 1
# Processed by: cddbd v1.5.2PL0 Copyright (c) Steve Scherf et al.
# Submitted via: ExactAudioCopy v1.3
#
DISCID=01099214
DTITLE=Hank Thompson - Hank Thompson_World Masters(1951-1953)
DYEAR=1900
DGENRE=Country
TTITLE0=I've Go A Humpty Dumpty Heart
TTITLE1=Soft Lips
TTITLE2=Texas Playboy Rag (Inst.)
TTITLE3=If I Cry
TTITLE4=She's A Girl Without Any Sweetheart
TTITLE5=Brown Skin Gal (Inst.)
TTITLE6=Most Of All
TTITLE7=It's Better To Have Loved A Little
TTITLE8=Don't Be That Way (Inst.)
TTITLE9=I'd Have Never Found Somebody New
TTITLE10=The New Wears Off Too Fast
TTITLE11=Take The "A" Train (Inst.)
TTITLE12=Simple Simon
TTITLE13=Green Light
TTITLE14=Red Skin Gal (Inst.)
TTITLE15=I'll Sign My Heart Away
TTITLE16=If Lovin' You Is Wrong
TTITLE17=In The Mood (Inst.)
TTITLE18=When Your're Lovin' You're Livin'
TTITLE19=The Grass Looks Greener
EXTD=ID3G: 2
EXTT0=
EXTT1=
EXTT2=
EXTT3=
EXTT4=
EXTT5=
EXTT6=
EXTT7=
EXTT8=
EXTT9=
EXTT10=
EXTT11=
EXTT12=
EXTT13=
EXTT14=
EXTT15=
EXTT16=
EXTT17=
EXTT18=
EXTT19=
PLAYORDER=
